<svg xmlns="http://www.w3.org/2000/svg" xmlns:xlink="http://www.w3.org/1999/xlink" width="166" height="65.707" viewBox="0 0 166 65.707">
  <defs>
    <style>
      .cls-1 {
        fill: #fff;
      }

      .cls-2 {
        filter: url(#Path_157);
      }

      .cls-3 {
        filter: url(#Path_156);
      }
    </style>
    <filter id="Path_156" x="0" y="0.948" width="40.624" height="51.294" filterUnits="userSpaceOnUse">
      <feOffset dy="3" input="SourceAlpha"/>
      <feGaussianBlur stdDeviation="3" result="blur"/>
      <feFlood flood-color="#5a7d93" flood-opacity="0.161"/>
      <feComposite operator="in" in2="blur"/>
      <feComposite in="SourceGraphic"/>
    </filter>
    <filter id="Path_157" x="24.228" y="0" width="141.772" height="65.707" filterUnits="userSpaceOnUse">
      <feOffset dy="3" input="SourceAlpha"/>
      <feGaussianBlur stdDeviation="3" result="blur-2"/>
      <feFlood flood-color="#5a7d93" flood-opacity="0.161"/>
      <feComposite operator="in" in2="blur-2"/>
      <feComposite in="SourceGraphic"/>
    </filter>
  </defs>
  <g id="Logo_WHT" data-name="Logo WHT" transform="translate(9 6)">
    <g id="Group_11620" data-name="Group 11620">
      <g class="cls-3" transform="matrix(1, 0, 0, 1, -9, -6)">
        <path id="Path_156-2" data-name="Path 156" class="cls-1" d="M271.637,429.146c-.845-.3-1.711-.537-2.55-.852-.24-.088-.517-.237-.527-.493s.28-.439.531-.539c2.832-1.14,5.942-1.673,8.513-3.319a5.742,5.742,0,0,0,2.322-2.511,3.812,3.812,0,0,0-3.66-5.265,4.775,4.775,0,0,0-2.077.6,18.8,18.8,0,0,0-2.713,1.939q-.614.482-1.253.93a29.425,29.425,0,0,1-6.906,3.578c-1.218.437-2.609.506-3.708,1.234a3.9,3.9,0,0,0-1.676,2.687,3.6,3.6,0,0,0,.829,2.975c.924,1.014,2.372,1.312,3.7,1.669a17.067,17.067,0,0,1,7.122,3.7,10.745,10.745,0,0,1,3.592,7.046c.083,1.256-.259,2.747-1.422,3.231a2.429,2.429,0,0,1-2.865-1.23,5.4,5.4,0,0,1-.4-3.331c.154-1.163.423-2.442-.2-3.435a3.078,3.078,0,0,0-3.141-1.125,5.637,5.637,0,0,0-4.365,5.629,7.394,7.394,0,0,0,4.105,6.155,10.887,10.887,0,0,0,7.568.651c3.364-.841,6.524-3.138,7.627-6.426a9.669,9.669,0,0,0-1.412-8.4A14.258,14.258,0,0,0,271.637,429.146Z" transform="translate(-248.89 -409.22)"/>
      </g>
      <g class="cls-2" transform="matrix(1, 0, 0, 1, -9, -6)">
        <path id="Path_157-2" data-name="Path 157" class="cls-1" d="M394.646,419.492a4.885,4.885,0,0,0-2.561-.563,5.985,5.985,0,0,0-2.664.717,2.073,2.073,0,0,0-1.23,1.9c-.022.641-.048,1.384-.078,2.172-.043.361-.1.776-.176,1.26q-.259,1.591-.617,3.587t-.871,4.1q-.513,2.1-1.075,3.843a16.417,16.417,0,0,1-1.127,2.768q-.565,1.024-1.18.819t-.665-2.511q-.052-2.307.206-5.636t.563-7.121q.309-3.789.513-7.069a1.636,1.636,0,0,0-1.18-1.69,5.528,5.528,0,0,0-2.816-.411,6.023,6.023,0,0,0-2.818,1.025,3.289,3.289,0,0,0-1.382,2.716q0,2.869-.1,5.992c-.036,1.092-.036,2.13-.054,3.193a32.13,32.13,0,0,1-.921,3.167c-.553,1.607-1.175,3.179-1.849,4.752-.691,1.572-1.348,2.955-2,4.164-.639,1.192-1.175,1.78-1.59,1.78-.6,0-.985-.536-1.123-1.641a18.631,18.631,0,0,1,0-3.94q.207-2.307.674-4.873c.294-1.693.587-3.162.864-4.406.276-1.227.138-2-.415-2.35a3.441,3.441,0,0,0-2.039-.466,24.21,24.21,0,0,0-2.609.259,3.559,3.559,0,0,1-2-.1,6.952,6.952,0,0,0,.622-3.525c-.138-1.071-.933-1.59-2.367-1.59a3.491,3.491,0,0,0-2.194.76,4.932,4.932,0,0,0-1.486,1.849,4.373,4.373,0,0,0-.415,2.3,3.353,3.353,0,0,0,.361,1.261,3.655,3.655,0,0,0,.371.574c.2.247.313.337.187.65-.536,1.337-.94,2.721-1.362,4.1s-.95,2.716-1.469,4.059c-.043.111-.083.223-.128.332a35.058,35.058,0,0,1-1.745,3.732c-.57,1.071-1.071,1.59-1.486,1.59-.553,0-.9-.6-1.071-1.849a24.786,24.786,0,0,1-.156-4.389q.1-2.566.467-5.339c.242-1.849.484-3.369.76-4.613a2.941,2.941,0,0,0-.518-2.3,4.16,4.16,0,0,0-1.832-1.434,5.022,5.022,0,0,0-2.367-.363,2.986,2.986,0,0,0-2.039,1.019,10.487,10.487,0,0,0-1.8-2.246,5.2,5.2,0,0,0-2.505-1.33,8.091,8.091,0,0,0-6.462,1.175,13.2,13.2,0,0,0-4.251,5.184,21.444,21.444,0,0,0-1.277,3.35c-.031.083-.078.136-.105.228a41.891,41.891,0,0,1-6.454,12.09q.1-3.175.206-6.969t.615-8.809a2.874,2.874,0,0,0-.409-1.9,3.018,3.018,0,0,0-1.384-1.127,5.652,5.652,0,0,0-1.844-.411,7.134,7.134,0,0,0-1.9.156,8.5,8.5,0,0,0-2.972-3.483,6.144,6.144,0,0,0-3.585-1.23,7.924,7.924,0,0,0-5.431,2.1,15.34,15.34,0,0,0-3.791,5.329,23.353,23.353,0,0,0-1.337,4c-.026.091-.076.152-.1.252a26.375,26.375,0,0,1-.923,3.278q-.718,2.154-1.536,4.3a30.529,30.529,0,0,1-1.69,3.739c-.582,1.061-1.076,1.588-1.486,1.588q-.923,0-1.178-1.844a25.128,25.128,0,0,1-.154-4.406q.1-2.558.461-5.327t.769-4.612a1.969,1.969,0,0,0-.975-1.742,7.558,7.558,0,0,0-2.509-1.229,4.923,4.923,0,0,0-2.716-.052,1.873,1.873,0,0,0-1.382,1.9q-.412,1.127-.923,2.972T284.3,430.56q-.612,2.047-1.28,4.1a42.463,42.463,0,0,1-1.515,4.062c-.3.674-.788,1.9-1.546,2.16-1.519.53-.594-6.112-.513-6.844.235-2.151.515-4.3.759-6.447q.407-3.587.615-6.865a1.629,1.629,0,0,0-1.127-1.69,5.292,5.292,0,0,0-2.768-.411,6.023,6.023,0,0,0-2.816,1.025,2.948,2.948,0,0,0-1.282,2.612q-.1,2.869-.358,5.84t-.409,5.738q-.156,2.766-.154,5.123a20.34,20.34,0,0,0,.308,3.893,6.061,6.061,0,0,0,1.28,2.714,6.636,6.636,0,0,0,2.253,1.794,4.828,4.828,0,0,0,2.664.461,3.76,3.76,0,0,0,2.409-1.28,15.155,15.155,0,0,0,2.868-4.2,42.723,42.723,0,0,0,2.151-5.431,17.809,17.809,0,0,0,.308,3.485,6.876,6.876,0,0,0,1.28,3.022,6.718,6.718,0,0,0,2.255,1.947,6.79,6.79,0,0,0,2.663.767,4.017,4.017,0,0,0,2.511-.613,10.323,10.323,0,0,0,3.33-3.587c.594-.985,1.125-2,1.621-3.036a10.778,10.778,0,0,0,2.632,4.472,8.029,8.029,0,0,0,5.942,2.151,6.863,6.863,0,0,0,3.535-.821,7.205,7.205,0,0,0,2.2-1.947l-.308,2.768a25.844,25.844,0,0,0-5.327,1.177,21.421,21.421,0,0,0-5.636,2.716,10.521,10.521,0,0,0-3.739,4.252,6.618,6.618,0,0,0,.358,5.787,6.544,6.544,0,0,0,3.637,3.076,10.844,10.844,0,0,0,5.84.665,12.935,12.935,0,0,0,6.148-2.868,15.306,15.306,0,0,0,4.662-7.53q.511-1.744.871-3.381t.563-3.279a37.269,37.269,0,0,0,5.686-6.917c.14-.214.268-.46.4-.682.047.416.086.835.15,1.246a18.439,18.439,0,0,0,2.367,6.652,7.844,7.844,0,0,0,4.717,3.7,6.683,6.683,0,0,0,3.784-.311,8.236,8.236,0,0,0,3.68-2.92,16.415,16.415,0,0,0,2.264-4.458,6.469,6.469,0,0,0,4.3,3.594,4.336,4.336,0,0,0,3.438-.415,10.133,10.133,0,0,0,2.868-2.609,19.955,19.955,0,0,0,2.246-3.888c.657-1.469,1.21-2.886,1.693-4.268.384-1.082.724-2.181,1.047-3.281q.241-.827.475-1.655a10.423,10.423,0,0,0,.43-1.612h.95a5.275,5.275,0,0,0,1.037-.1,31.123,31.123,0,0,0-1.279,5.736,25.129,25.129,0,0,0-.155,6.2,13.333,13.333,0,0,0,1.434,5.011,3.975,3.975,0,0,0,3.577,2.212,6.34,6.34,0,0,0,3.9-1.071,13.213,13.213,0,0,0,3.162-3.127,22.049,22.049,0,0,0,2.184-3.689c.066.615.143,1.166.237,1.636a5.8,5.8,0,0,0,1.334,2.714,7.071,7.071,0,0,0,2.3,1.792,5.168,5.168,0,0,0,2.664.513A3.7,3.7,0,0,0,384.5,445a13.413,13.413,0,0,0,2.872-4.72l0,.007h0a16.069,16.069,0,0,0-.375,2.094,61.3,61.3,0,0,1-2,7.076c-.8,2.36-2.44,4.567-2.362,7.153a2.133,2.133,0,0,0,2.414,2.17,6.97,6.97,0,0,0,4.717-2.168,11.822,11.822,0,0,0,2.825-4.791q.189-.588.354-1.185c.093-.332.18-.665.263-1,1.828-7.393,1.489-15.214,1.947-22.768q.2-3.382.513-5.534A1.792,1.792,0,0,0,394.646,419.492Zm-81.758,31.249a15.565,15.565,0,0,1-2.561,5.686,6.558,6.558,0,0,1-2.87,2.3,2.1,2.1,0,0,1-2.2-.408,2.545,2.545,0,0,1-.563-2.46,6.408,6.408,0,0,1,3.024-4.456,14.836,14.836,0,0,1,5.481-2.1Zm1.742-19.055a20.127,20.127,0,0,1-1.229,5.123,14.685,14.685,0,0,0-.615,1.434,12.585,12.585,0,0,1-.665,1.484,3.7,3.7,0,0,1-.923,1.126,2.117,2.117,0,0,1-1.384.461,2.728,2.728,0,0,1-2.509-1.588,10.469,10.469,0,0,1-1.128-3.945,22.947,22.947,0,0,1,.052-5.071,24.593,24.593,0,0,1,1.076-5.019,13.963,13.963,0,0,1,1.844-3.791,2.482,2.482,0,0,1,2.407-1.28,2.975,2.975,0,0,1,2.049,1.894,12.326,12.326,0,0,1,1.076,4.048A23.542,23.542,0,0,1,314.63,431.686Zm27.081,3.648a29.275,29.275,0,0,1-1.3,5.132,14.328,14.328,0,0,1-1.987,3.784,2.64,2.64,0,0,1-2.436,1.3,2.531,2.531,0,0,1-1.935-1.849,13.5,13.5,0,0,1-.795-4.009,25.977,25.977,0,0,1,.19-4.994,24.053,24.053,0,0,1,1.158-4.855,9.941,9.941,0,0,1,2.022-3.542,2.988,2.988,0,0,1,2.834-1.071,2.236,2.236,0,0,1,1.641,1.659,14.121,14.121,0,0,1,.743,3.058A19.572,19.572,0,0,1,341.711,435.334Z" transform="translate(-238.68 -409.62)"/>
      </g>
    </g>
  </g>
</svg>
